# xmcd
#
# Track frame offsets: 
#        150
#        20853
#        45075
#        79842
#        100867
#        117514
#        136258
#        152893
#        174248
#
# Disc length: 2658 seconds
#
# Revision: 1
# Processed by: cddbd v1.5.2PL0 Copyright (c) Steve Scherf et al.
# Submitted via: ExactAudioCopy v1.0b1
#
DISCID=6a0a6009
DTITLE=Stevie Wonder - Innervisions 2012 Audio Fidelity
DYEAR=1973
DGENRE=R&B
TTITLE0=Too High
TTITLE1=Visions
TTITLE2=Living For The City
TTITLE3=Golden Lady
TTITLE4=Higher Ground
TTITLE5=Jesus Children Of America
TTITLE6=All In Love Is Fair
TTITLE7=Don't You Worry 'Bout A Thing
TTITLE8=He's Misstra Know-It-All
EXTD=
EXTT0=
EXTT1=
EXTT2=
EXTT3=
EXTT4=
EXTT5=
EXTT6=
EXTT7=
EXTT8=
PLAYORDER=
